<svg width="440" height="96" viewBox="0 0 440 96" fill="none" xmlns="http://www.w3.org/2000/svg">
<path d="M20.6406 28H17.248V16.1699H4.3457V28H0.970703V2.40625H4.3457V13.4102H17.248V2.40625H20.6406V28Z" fill="black"/>
<path d="M29.6582 28H26.4062V8.98047H29.6582V28ZM26.1426 3.93555C26.1426 3.4082 26.3008 2.96289 26.6172 2.59961C26.9453 2.23633 27.4258 2.05469 28.0586 2.05469C28.6914 2.05469 29.1719 2.23633 29.5 2.59961C29.8281 2.96289 29.9922 3.4082 29.9922 3.93555C29.9922 4.46289 29.8281 4.90234 29.5 5.25391C29.1719 5.60547 28.6914 5.78125 28.0586 5.78125C27.4258 5.78125 26.9453 5.60547 26.6172 5.25391C26.3008 4.90234 26.1426 4.46289 26.1426 3.93555Z" fill="black"/>
<path d="M34.7734 33.0977L32.9277 31.832C34.0293 30.2969 34.6035 28.7148 34.6504 27.0859V24.1504H37.832V26.6992C37.832 27.8828 37.5391 29.0664 36.9531 30.25C36.3789 31.4336 35.6523 32.3828 34.7734 33.0977Z" fill="black"/>
<path d="M67.7148 23.5176L71.3711 8.98047H74.623L69.0859 28H66.4492L61.8262 13.5859L57.3262 28H54.6895L49.1699 8.98047H52.4043L56.1484 23.2188L60.5781 8.98047H63.1973L67.7148 23.5176Z" fill="black"/>
<path d="M85.8379 28.3516C83.2598 28.3516 81.1621 27.5078 79.5449 25.8203C77.9277 24.1211 77.1191 21.8535 77.1191 19.0176V18.4199C77.1191 16.5332 77.4766 14.8516 78.1914 13.375C78.918 11.8867 79.9258 10.7266 81.2148 9.89453C82.5156 9.05078 83.9219 8.62891 85.4336 8.62891C87.9062 8.62891 89.8281 9.44336 91.1992 11.0723C92.5703 12.7012 93.2559 15.0332 93.2559 18.0684V19.4219H80.3711C80.418 21.2969 80.9629 22.8145 82.0059 23.9746C83.0605 25.123 84.3965 25.6973 86.0137 25.6973C87.1621 25.6973 88.1348 25.4629 88.9316 24.9941C89.7285 24.5254 90.4258 23.9043 91.0234 23.1309L93.0098 24.6777C91.416 27.127 89.0254 28.3516 85.8379 28.3516ZM85.4336 11.3008C84.1211 11.3008 83.0195 11.7812 82.1289 12.7422C81.2383 13.6914 80.6875 15.0273 80.4766 16.75H90.0039V16.5039C89.9102 14.8516 89.4648 13.5742 88.668 12.6719C87.8711 11.7578 86.793 11.3008 85.4336 11.3008Z" fill="black"/>
<path d="M100.568 28H97.3164V1H100.568V28Z" fill="black"/>
<path d="M113.418 25.6973C114.578 25.6973 115.592 25.3457 116.459 24.6426C117.326 23.9395 117.807 23.0605 117.9 22.0059H120.977C120.918 23.0957 120.543 24.1328 119.852 25.1172C119.16 26.1016 118.234 26.8867 117.074 27.4727C115.926 28.0586 114.707 28.3516 113.418 28.3516C110.828 28.3516 108.766 27.4902 107.23 25.7676C105.707 24.0332 104.945 21.666 104.945 18.666V18.1211C104.945 16.2695 105.285 14.623 105.965 13.1816C106.645 11.7402 107.617 10.6211 108.883 9.82422C110.16 9.02734 111.666 8.62891 113.4 8.62891C115.533 8.62891 117.303 9.26758 118.709 10.5449C120.127 11.8223 120.883 13.4805 120.977 15.5195H117.9C117.807 14.2891 117.338 13.2812 116.494 12.4961C115.662 11.6992 114.631 11.3008 113.4 11.3008C111.748 11.3008 110.465 11.8984 109.551 13.0938C108.648 14.2773 108.197 15.9941 108.197 18.2441V18.8594C108.197 21.0508 108.648 22.7383 109.551 23.9219C110.453 25.1055 111.742 25.6973 113.418 25.6973Z" fill="black"/>
<path d="M123.771 18.3145C123.771 16.4512 124.135 14.7754 124.861 13.2871C125.6 11.7988 126.619 10.6504 127.92 9.8418C129.232 9.0332 130.727 8.62891 132.402 8.62891C134.992 8.62891 137.084 9.52539 138.678 11.3184C140.283 13.1113 141.086 15.4961 141.086 18.4727V18.7012C141.086 20.5527 140.729 22.2168 140.014 23.6934C139.311 25.1582 138.297 26.3008 136.973 27.1211C135.66 27.9414 134.148 28.3516 132.438 28.3516C129.859 28.3516 127.768 27.4551 126.162 25.6621C124.568 23.8691 123.771 21.4961 123.771 18.543V18.3145ZM127.041 18.7012C127.041 20.8105 127.527 22.5039 128.5 23.7812C129.484 25.0586 130.797 25.6973 132.438 25.6973C134.09 25.6973 135.402 25.0527 136.375 23.7637C137.348 22.4629 137.834 20.6465 137.834 18.3145C137.834 16.2285 137.336 14.541 136.34 13.252C135.355 11.9512 134.043 11.3008 132.402 11.3008C130.797 11.3008 129.502 11.9395 128.518 13.2168C127.533 14.4941 127.041 16.3223 127.041 18.7012Z" fill="black"/>
<path d="M148.223 8.98047L148.311 11.0898C149.705 9.44922 151.586 8.62891 153.953 8.62891C156.613 8.62891 158.424 9.64844 159.385 11.6875C160.018 10.7734 160.838 10.0352 161.846 9.47266C162.865 8.91016 164.066 8.62891 165.449 8.62891C169.621 8.62891 171.742 10.8379 171.812 15.2559V28H168.561V15.4492C168.561 14.0898 168.25 13.0762 167.629 12.4082C167.008 11.7285 165.965 11.3887 164.5 11.3887C163.293 11.3887 162.291 11.752 161.494 12.4785C160.697 13.1934 160.234 14.1602 160.105 15.3789V28H156.836V15.5371C156.836 12.7715 155.482 11.3887 152.775 11.3887C150.643 11.3887 149.184 12.2969 148.398 14.1133V28H145.146V8.98047H148.223Z" fill="black"/>
<path d="M184.627 28.3516C182.049 28.3516 179.951 27.5078 178.334 25.8203C176.717 24.1211 175.908 21.8535 175.908 19.0176V18.4199C175.908 16.5332 176.266 14.8516 176.98 13.375C177.707 11.8867 178.715 10.7266 180.004 9.89453C181.305 9.05078 182.711 8.62891 184.223 8.62891C186.695 8.62891 188.617 9.44336 189.988 11.0723C191.359 12.7012 192.045 15.0332 192.045 18.0684V19.4219H179.16C179.207 21.2969 179.752 22.8145 180.795 23.9746C181.85 25.123 183.186 25.6973 184.803 25.6973C185.951 25.6973 186.924 25.4629 187.721 24.9941C188.518 24.5254 189.215 23.9043 189.812 23.1309L191.799 24.6777C190.205 27.127 187.814 28.3516 184.627 28.3516ZM184.223 11.3008C182.91 11.3008 181.809 11.7812 180.918 12.7422C180.027 13.6914 179.477 15.0273 179.266 16.75H188.793V16.5039C188.699 14.8516 188.254 13.5742 187.457 12.6719C186.66 11.7578 185.582 11.3008 184.223 11.3008Z" fill="black"/>
<path d="M209.166 4.375V8.98047H212.717V11.4941H209.166V23.2891C209.166 24.0508 209.324 24.625 209.641 25.0117C209.957 25.3867 210.496 25.5742 211.258 25.5742C211.633 25.5742 212.148 25.5039 212.805 25.3633V28C211.949 28.2344 211.117 28.3516 210.309 28.3516C208.855 28.3516 207.76 27.9121 207.021 27.0332C206.283 26.1543 205.914 24.9062 205.914 23.2891V11.4941H202.451V8.98047H205.914V4.375H209.166Z" fill="black"/>
<path d="M215.318 18.3145C215.318 16.4512 215.682 14.7754 216.408 13.2871C217.146 11.7988 218.166 10.6504 219.467 9.8418C220.779 9.0332 222.273 8.62891 223.949 8.62891C226.539 8.62891 228.631 9.52539 230.225 11.3184C231.83 13.1113 232.633 15.4961 232.633 18.4727V18.7012C232.633 20.5527 232.275 22.2168 231.561 23.6934C230.857 25.1582 229.844 26.3008 228.52 27.1211C227.207 27.9414 225.695 28.3516 223.984 28.3516C221.406 28.3516 219.314 27.4551 217.709 25.6621C216.115 23.8691 215.318 21.4961 215.318 18.543V18.3145ZM218.588 18.7012C218.588 20.8105 219.074 22.5039 220.047 23.7812C221.031 25.0586 222.344 25.6973 223.984 25.6973C225.637 25.6973 226.949 25.0527 227.922 23.7637C228.895 22.4629 229.381 20.6465 229.381 18.3145C229.381 16.2285 228.883 14.541 227.887 13.252C226.902 11.9512 225.59 11.3008 223.949 11.3008C222.344 11.3008 221.049 11.9395 220.064 13.2168C219.08 14.4941 218.588 16.3223 218.588 18.7012Z" fill="black"/>
<path d="M248.699 8.98047L248.787 11.0898C250.182 9.44922 252.062 8.62891 254.43 8.62891C257.09 8.62891 258.9 9.64844 259.861 11.6875C260.494 10.7734 261.314 10.0352 262.322 9.47266C263.342 8.91016 264.543 8.62891 265.926 8.62891C270.098 8.62891 272.219 10.8379 272.289 15.2559V28H269.037V15.4492C269.037 14.0898 268.727 13.0762 268.105 12.4082C267.484 11.7285 266.441 11.3887 264.977 11.3887C263.77 11.3887 262.768 11.752 261.971 12.4785C261.174 13.1934 260.711 14.1602 260.582 15.3789V28H257.312V15.5371C257.312 12.7715 255.959 11.3887 253.252 11.3887C251.119 11.3887 249.66 12.2969 248.875 14.1133V28H245.623V8.98047H248.699Z" fill="black"/>
<path d="M283.434 23.2363L287.863 8.98047H291.344L283.697 30.9355C282.514 34.0996 280.633 35.6816 278.055 35.6816L277.439 35.6289L276.227 35.4004V32.7637L277.105 32.834C278.207 32.834 279.062 32.6113 279.672 32.166C280.293 31.7207 280.803 30.9062 281.201 29.7227L281.922 27.7891L275.137 8.98047H278.688L283.434 23.2363Z" fill="black"/>
<path d="M307.076 17.9805V28H303.701V2.40625H313.141C315.941 2.40625 318.133 3.12109 319.715 4.55078C321.309 5.98047 322.105 7.87305 322.105 10.2285C322.105 12.7129 321.326 14.6289 319.768 15.9766C318.221 17.3125 316 17.9805 313.105 17.9805H307.076ZM307.076 15.2207H313.141C314.945 15.2207 316.328 14.7988 317.289 13.9551C318.25 13.0996 318.73 11.8691 318.73 10.2637C318.73 8.74023 318.25 7.52148 317.289 6.60742C316.328 5.69336 315.01 5.21875 313.334 5.18359H307.076V15.2207Z" fill="black"/>
<path d="M324.795 18.3145C324.795 16.4512 325.158 14.7754 325.885 13.2871C326.623 11.7988 327.643 10.6504 328.943 9.8418C330.256 9.0332 331.75 8.62891 333.426 8.62891C336.016 8.62891 338.107 9.52539 339.701 11.3184C341.307 13.1113 342.109 15.4961 342.109 18.4727V18.7012C342.109 20.5527 341.752 22.2168 341.037 23.6934C340.334 25.1582 339.32 26.3008 337.996 27.1211C336.684 27.9414 335.172 28.3516 333.461 28.3516C330.883 28.3516 328.791 27.4551 327.186 25.6621C325.592 23.8691 324.795 21.4961 324.795 18.543V18.3145ZM328.064 18.7012C328.064 20.8105 328.551 22.5039 329.523 23.7812C330.508 25.0586 331.82 25.6973 333.461 25.6973C335.113 25.6973 336.426 25.0527 337.398 23.7637C338.371 22.4629 338.857 20.6465 338.857 18.3145C338.857 16.2285 338.359 14.541 337.363 13.252C336.379 11.9512 335.066 11.3008 333.426 11.3008C331.82 11.3008 330.525 11.9395 329.541 13.2168C328.557 14.4941 328.064 16.3223 328.064 18.7012Z" fill="black"/>
<path d="M355.381 11.8984C354.889 11.8164 354.355 11.7754 353.781 11.7754C351.648 11.7754 350.201 12.6836 349.439 14.5V28H346.188V8.98047H349.352L349.404 11.1777C350.471 9.47852 351.982 8.62891 353.939 8.62891C354.572 8.62891 355.053 8.71094 355.381 8.875V11.8984Z" fill="black"/>
<path d="M363.678 4.375V8.98047H367.229V11.4941H363.678V23.2891C363.678 24.0508 363.836 24.625 364.152 25.0117C364.469 25.3867 365.008 25.5742 365.77 25.5742C366.145 25.5742 366.66 25.5039 367.316 25.3633V28C366.461 28.2344 365.629 28.3516 364.82 28.3516C363.367 28.3516 362.271 27.9121 361.533 27.0332C360.795 26.1543 360.426 24.9062 360.426 23.2891V11.4941H356.963V8.98047H360.426V4.375H363.678Z" fill="black"/>
<path d="M372.643 28V11.4941H369.637V8.98047H372.643V7.0293C372.643 4.99023 373.188 3.41406 374.277 2.30078C375.367 1.1875 376.908 0.630859 378.9 0.630859C379.65 0.630859 380.395 0.730469 381.133 0.929688L380.957 3.56641C380.406 3.46094 379.82 3.4082 379.199 3.4082C378.145 3.4082 377.33 3.71875 376.756 4.33984C376.182 4.94922 375.895 5.82812 375.895 6.97656V8.98047H379.955V11.4941H375.895V28H372.643Z" fill="black"/>
<path d="M382.697 18.3145C382.697 16.4512 383.061 14.7754 383.787 13.2871C384.525 11.7988 385.545 10.6504 386.846 9.8418C388.158 9.0332 389.652 8.62891 391.328 8.62891C393.918 8.62891 396.01 9.52539 397.604 11.3184C399.209 13.1113 400.012 15.4961 400.012 18.4727V18.7012C400.012 20.5527 399.654 22.2168 398.939 23.6934C398.236 25.1582 397.223 26.3008 395.898 27.1211C394.586 27.9414 393.074 28.3516 391.363 28.3516C388.785 28.3516 386.693 27.4551 385.088 25.6621C383.494 23.8691 382.697 21.4961 382.697 18.543V18.3145ZM385.967 18.7012C385.967 20.8105 386.453 22.5039 387.426 23.7812C388.41 25.0586 389.723 25.6973 391.363 25.6973C393.016 25.6973 394.328 25.0527 395.301 23.7637C396.273 22.4629 396.76 20.6465 396.76 18.3145C396.76 16.2285 396.262 14.541 395.266 13.252C394.281 11.9512 392.969 11.3008 391.328 11.3008C389.723 11.3008 388.428 11.9395 387.443 13.2168C386.459 14.4941 385.967 16.3223 385.967 18.7012Z" fill="black"/>
<path d="M407.623 28H404.371V1H407.623V28Z" fill="black"/>
<path d="M416.377 28H413.125V8.98047H416.377V28ZM412.861 3.93555C412.861 3.4082 413.02 2.96289 413.336 2.59961C413.664 2.23633 414.145 2.05469 414.777 2.05469C415.41 2.05469 415.891 2.23633 416.219 2.59961C416.547 2.96289 416.711 3.4082 416.711 3.93555C416.711 4.46289 416.547 4.90234 416.219 5.25391C415.891 5.60547 415.41 5.78125 414.777 5.78125C414.145 5.78125 413.664 5.60547 413.336 5.25391C413.02 4.90234 412.861 4.46289 412.861 3.93555Z" fill="black"/>
<path d="M420.736 18.3145C420.736 16.4512 421.1 14.7754 421.826 13.2871C422.564 11.7988 423.584 10.6504 424.885 9.8418C426.197 9.0332 427.691 8.62891 429.367 8.62891C431.957 8.62891 434.049 9.52539 435.643 11.3184C437.248 13.1113 438.051 15.4961 438.051 18.4727V18.7012C438.051 20.5527 437.693 22.2168 436.979 23.6934C436.275 25.1582 435.262 26.3008 433.938 27.1211C432.625 27.9414 431.113 28.3516 429.402 28.3516C426.824 28.3516 424.732 27.4551 423.127 25.6621C421.533 23.8691 420.736 21.4961 420.736 18.543V18.3145ZM424.006 18.7012C424.006 20.8105 424.492 22.5039 425.465 23.7812C426.449 25.0586 427.762 25.6973 429.402 25.6973C431.055 25.6973 432.367 25.0527 433.34 23.7637C434.312 22.4629 434.799 20.6465 434.799 18.3145C434.799 16.2285 434.301 14.541 433.305 13.252C432.32 11.9512 431.008 11.3008 429.367 11.3008C427.762 11.3008 426.467 11.9395 425.482 13.2168C424.498 14.4941 424.006 16.3223 424.006 18.7012Z" fill="black"/>
<path fill-rule="evenodd" clip-rule="evenodd" d="M398.859 93.9543L391.113 86.2089C390.479 84.892 389.992 83.4627 389.654 81.921L403.031 95.298C401.537 95.0069 400.146 94.559 398.859 93.9543ZM406.236 95.6749L389.167 78.6059C389.141 78.2856 389.121 77.9612 389.105 77.6328L389.071 75.6817L409.045 95.6552C408.526 95.6871 407.997 95.7031 407.457 95.7031C407.044 95.7031 406.637 95.6937 406.236 95.6749ZM411.575 95.3571L389.197 72.9788C389.28 72.1361 389.403 71.3166 389.567 70.5203L401.919 82.8727C402.109 83.3284 402.326 83.738 402.57 84.1016C403.262 85.1313 404.161 85.8379 405.268 86.2213L413.854 94.8073C413.123 95.0333 412.364 95.2166 411.575 95.3571ZM415.902 94.0271C416.54 93.7347 417.152 93.404 417.738 93.035L410.507 85.804C409.884 86.1722 409.175 86.4064 408.381 86.5065L415.902 94.0271ZM401.056 79.1812L390.154 68.2795C390.38 67.5779 390.642 66.8964 390.938 66.2352L400.92 76.2172L400.918 76.3672C400.918 77.3836 400.964 78.3216 401.056 79.1812ZM401.006 73.4743L391.9 64.368C392.25 63.7732 392.629 63.2098 393.038 62.6776L401.375 71.0149C401.206 71.7604 401.083 72.5803 401.006 73.4743ZM411.997 84.4658L419.379 91.8471C419.881 91.4316 420.36 90.9826 420.816 90.5C420.823 90.4925 420.831 90.485 420.838 90.4775L412.998 82.6379C412.725 83.3419 412.391 83.9512 411.997 84.4658ZM413.606 80.4177L422.125 88.9369C422.53 88.3896 422.9 87.8174 423.237 87.2205L413.891 77.8742C413.843 78.7953 413.748 79.6431 413.606 80.4177ZM413.921 75.0755L424.163 85.3179C424.443 84.6448 424.685 83.9449 424.892 83.2182L413.673 71.9987C413.818 72.9265 413.901 73.9521 413.921 75.0755ZM407.078 65.4045C406.225 65.4387 405.459 65.6163 404.783 65.9374L397.551 58.7052C397.583 58.6862 397.616 58.6673 397.648 58.6484C398.223 58.3176 398.817 58.0211 399.433 57.759L407.078 65.4045ZM411.847 67.3448C411.62 67.0697 411.374 66.8237 411.109 66.6069L401.525 57.0225C402.273 56.8106 403.048 56.6427 403.85 56.5189L425.707 78.3764C425.648 79.2497 425.549 80.0939 425.411 80.9089L411.847 67.3448ZM425.772 75.6127C425.761 74.5724 425.702 73.5703 425.594 72.6063L409.317 56.329C408.689 56.2815 408.046 56.2578 407.387 56.2578C407.066 56.2578 406.748 56.2637 406.435 56.2755L425.772 75.6127ZM412.659 56.8426L424.949 69.1327C424.469 67.3375 423.779 65.7053 422.881 64.2362L417.396 58.7512C415.967 57.8939 414.388 57.2577 412.659 56.8426ZM395.861 59.8437L403.171 67.1538C402.744 67.6324 402.377 68.2087 402.071 68.8829L394.357 61.1687C394.829 60.6952 395.33 60.2535 395.861 59.8437ZM251.539 59.8438L246.336 57.0312C248.281 53.6562 249.277 50.3516 249.324 47.1172V41H257.973V46.7305C257.973 48.9102 257.34 51.2422 256.074 53.7266C254.832 56.1875 253.32 58.2266 251.539 59.8438ZM239.305 95H227V43.8125H239.305V95ZM275.727 61.4258L275.34 56.9609H264.23V95H276.078V68.5273C277.273 66.4414 279.008 65.3984 281.281 65.3984C283.062 65.3984 284.27 65.8438 284.902 66.7344C285.535 67.625 285.852 69.0664 285.852 71.0586V95H297.734V69.0195L297.699 68.5273C298.848 66.4414 300.594 65.3984 302.938 65.3984C304.672 65.3984 305.867 65.8438 306.523 66.7344C307.18 67.625 307.508 69.043 307.508 70.9883V95H319.391V70.25C319.18 60.9219 315.219 56.2578 307.508 56.2578C302.633 56.2578 298.906 58.168 296.328 61.9883C294.641 58.168 291.395 56.2578 286.59 56.2578C282.043 56.2578 278.422 57.9805 275.727 61.4258ZM344.633 95V43.8125H363.02C369.605 43.8125 374.609 45.0195 378.031 47.4336C381.477 49.8477 383.199 53.3516 383.199 57.9453C383.199 60.5938 382.59 62.8555 381.371 64.7305C380.152 66.6055 378.359 67.9883 375.992 68.8789C378.664 69.582 380.715 70.8945 382.145 72.8164C383.574 74.7383 384.289 77.082 384.289 79.8477C384.289 84.8633 382.695 88.6367 379.508 91.168C376.344 93.6758 371.645 94.9531 365.41 95H344.633ZM356.973 73.2383V85.5078H365.059C367.285 85.5078 368.996 85.0039 370.191 83.9961C371.387 82.9648 371.984 81.5234 371.984 79.6719C371.984 75.4062 369.863 73.2617 365.621 73.2383H356.973ZM356.973 65.1523H363.406C366.102 65.1289 368.023 64.6367 369.172 63.6758C370.32 62.7148 370.895 61.2969 370.895 59.4219C370.895 57.2656 370.273 55.7188 369.031 54.7812C367.789 53.8203 365.785 53.3398 363.02 53.3398H356.973V65.1523Z" fill="black"/>
<circle cx="434" cy="90" r="6" fill="black"/>
</svg>
