<?xml version="1.0" encoding="utf-8"?>
<!-- Generator: Adobe Illustrator 24.3.0, SVG Export Plug-In . SVG Version: 6.00 Build 0)  -->
<svg version="1.1" id="Layer_1" xmlns="http://www.w3.org/2000/svg" xmlns:xlink="http://www.w3.org/1999/xlink" x="0px" y="0px"
	 viewBox="0 0 96.6 20.9" style="enable-background:new 0 0 96.6 20.9;" xml:space="preserve">
<g id="Group_16" transform="translate(-105.759 -106.901)">
	<path id="Path_1" d="M105.8,110h1.6v0.7c0.4-0.6,1.1-0.9,1.8-0.9c0.7-0.1,1.4,0.3,1.7,0.9c0.6-0.7,1.5-1.1,2.4-0.8
		c0.8,0.1,1.4,0.8,1.3,1.6c0,1.6,0,3.3,0,4.9c0,0.3,0,0.6,0.1,0.9H113v-0.4c0-1.5,0-3,0-4.6c0-0.2,0-0.4,0-0.6
		c0-0.5-0.5-0.8-0.9-0.8c-0.5,0-0.9,0.4-1,0.9c0,0,0,0,0,0c0,0.3,0,0.5,0,0.8c0,1.5,0,3.1,0,4.7h-1.6v-0.4c0-1.6,0-3.1,0-4.7
		c0-0.2,0-0.4-0.1-0.6c-0.1-0.4-0.4-0.7-0.9-0.7c-0.4,0-0.8,0.2-1,0.7c-0.1,0.3-0.1,0.6-0.1,0.9c0,1.5,0,2.9,0,4.4v0.4h-1.6v-0.5
		c0-1.9,0-3.8,0-5.7c0-0.2,0-0.3,0-0.5L105.8,110z"/>
	<path id="Path_2" d="M128.1,106.9v3.9c0.1,0,0.1-0.1,0.1-0.1c0.5-0.7,1.3-1,2.2-0.8c0.9,0.1,1.6,0.8,1.5,1.7c0,0,0,0.1,0,0.1
		c0,1.4,0,2.9,0,4.3c0,0.4,0,0.9,0.1,1.4h-1.7c0-0.1,0-0.3,0-0.4c0-1.5,0-3,0-4.5c0-0.3,0-0.5-0.1-0.8c-0.1-0.4-0.5-0.7-0.9-0.7
		c-0.4-0.1-0.8,0.2-1,0.5c-0.1,0.4-0.2,0.8-0.2,1.2c0,1.4,0,2.8,0,4.3v0.4h-1.6c0-0.1,0-0.2,0-0.3c0-3.3,0-6.5,0-9.8
		c0-0.1,0-0.2,0-0.3L128.1,106.9z"/>
	<path id="Path_3" d="M199.4,127.8c-1-0.3-1.7-1.2-1.7-2.2c-0.2-1.2-0.2-2.3,0.2-3.5c0.3-1.2,1.5-1.9,2.7-1.6c0.1,0,0.2,0,0.2,0.1
		c0.5,0.1,0.9,0.5,1.1,1c0.3,0.8,0.4,1.7,0.4,2.6h-3.9c-0.1,0.9,0,1.8,0.5,2.5c0.5,0.6,1.3,0.6,1.8,0.2c0.1-0.1,0.2-0.1,0.2-0.2
		c0.2-0.4,0.4-0.8,0.5-1.3h0.7c0.1,1.1-0.7,2.1-1.8,2.4L199.4,127.8z M201.5,123.5c-0.1-0.8,0-1.7-0.8-2.2c-0.5-0.3-1.1-0.3-1.6,0
		c-0.7,0.5-0.6,1.3-0.7,2.1H201.5z"/>
	<path id="Path_4" d="M158.8,127.8c-1.2-0.4-2-1.5-1.9-2.7c-0.1-0.9-0.1-1.9,0.2-2.8c0.2-1.2,1.4-2,2.6-1.8c0.1,0,0.1,0,0.2,0
		c0.8,0.1,1.4,0.7,1.6,1.5c0.5,1.4,0.5,2.9,0,4.3c-0.3,0.8-0.9,1.4-1.7,1.5L158.8,127.8z M157.6,124.1c0,0.8,0.2,1.5,0.5,2.3
		c0.3,0.6,1,0.9,1.7,0.7c0.1-0.1,0.2-0.1,0.3-0.2c0.2-0.2,0.4-0.5,0.5-0.8c0.4-1.3,0.4-2.6,0-3.8c-0.1-0.6-0.7-1-1.3-1.1
		c-0.6,0-1.2,0.4-1.3,1C157.8,122.8,157.7,123.4,157.6,124.1L157.6,124.1z"/>
	<path id="Path_5" d="M191.3,127.8c-0.9-0.3-1.5-1.2-1.4-2.2c0-1.6,0-3.3,0-5h0.8c0,0.1,0,0.3,0,0.4c0,1.4,0,2.8,0,4.1
		c0,0.2,0,0.5,0,0.7c0,0.5,0.3,0.9,0.8,1.1c0.5,0.1,1,0,1.4-0.4c0.3-0.3,0.5-0.7,0.4-1.2c0-1.5,0-2.9,0-4.4v-0.4h0.9v7h-0.7V127
		l-1.4,0.8L191.3,127.8z"/>
	<path id="Path_6" d="M133,127.8c-0.9-0.2-1.5-1.1-1.4-2c0-1.7,0-3.4,0-5.2h0.9v0.4c0,1.5,0,2.9,0,4.4c0,0.2,0,0.4,0,0.6
		c0.1,0.5,0.3,0.9,0.9,1.1c0.5,0.1,1.1-0.1,1.4-0.5c0.3-0.3,0.4-0.8,0.4-1.2c0-1.4,0-2.8,0-4.3v-0.5h0.9v7h-0.7V127l-1.4,0.8
		L133,127.8z"/>
	<path id="Path_7" d="M144.3,127.8c0,0-0.1,0-0.1-0.1c-1-0.2-1.6-1.1-1.5-2c0,0,0-0.1,0-0.1h0.8c0,0.2,0,0.3,0.1,0.5
		c0,0.5,0.4,0.9,0.9,1c0.5,0.2,1.1,0,1.4-0.5c0.3-0.5,0.2-1.1-0.2-1.6c-0.3-0.3-0.7-0.5-1.1-0.7c-0.3-0.2-0.6-0.3-0.9-0.5
		c-0.7-0.5-1-1.4-0.7-2.2c0.2-0.7,0.9-1.1,1.6-1.1c0.9-0.2,1.9,0.3,2.2,1.3c0.1,0.2,0.1,0.5,0,0.7h-0.8c0-0.1-0.1-0.3-0.1-0.4
		c0-0.5-0.5-0.9-1-0.9c-0.5-0.1-0.9,0.2-1.1,0.6c-0.2,0.5-0.1,1,0.3,1.3c0.3,0.2,0.5,0.4,0.8,0.5c0.4,0.2,0.8,0.4,1.1,0.7
		c0.9,0.7,1,2,0.3,2.9c-0.1,0.1-0.1,0.1-0.2,0.2c-0.3,0.2-0.7,0.4-1,0.5L144.3,127.8z"/>
	<path id="Path_8" d="M175.2,127.8c-0.1,0-0.1,0-0.2-0.1c-0.8-0.1-1.4-0.8-1.4-1.6c0-0.2,0-0.4,0-0.6h0.8c0,0.3,0.1,0.6,0.2,0.8
		c0.2,0.6,0.6,0.8,1.4,0.7c0.5,0,0.9-0.5,1-1c0.1-0.6-0.3-1.2-0.8-1.5c-0.5-0.3-1-0.5-1.5-0.8c-0.5-0.3-0.8-0.8-0.8-1.4
		c-0.1-1.1,0.5-1.7,1.7-1.9c1-0.3,2,0.3,2.2,1.2c0.1,0.2,0.1,0.5,0,0.7h-0.8c0-0.2-0.1-0.3-0.1-0.5c-0.1-0.6-0.7-1-1.3-0.9
		s-1,0.7-0.9,1.3c0,0.2,0.2,0.5,0.3,0.6c0.3,0.2,0.5,0.4,0.8,0.6c0.3,0.2,0.7,0.3,1,0.5c0.9,0.5,1.2,1.6,0.8,2.6
		c-0.2,0.5-0.6,0.9-1.1,1l-0.3,0.1L175.2,127.8z"/>
	<path id="Path_9" d="M180.6,127.8c-0.1,0-0.3-0.1-0.4-0.1c-0.8-0.2-1.4-1-1.4-1.8c-0.1-1.2-0.1-2.4,0.1-3.6c0.2-1.2,1.4-2,2.6-1.7
		c0.3,0.1,0.6,0.2,0.9,0.4c0.5,0.4,0.7,1.1,0.6,1.7h-0.8c0-0.1,0-0.3,0-0.4c0-0.6-0.5-1.1-1.1-1.1c-0.6-0.1-1.1,0.3-1.2,0.8
		c-0.1,0.6-0.2,1.2-0.2,1.8c0,0.8,0,1.5,0.1,2.3c0,0.6,0.6,1.1,1.2,1.1c0.1,0,0.3,0,0.4-0.1c0.4-0.1,0.7-0.4,0.7-0.9
		c0-0.2,0.1-0.4,0.1-0.6h0.8c0.2,0.8-0.2,1.7-1,2c-0.1,0.1-0.3,0.1-0.5,0.2L180.6,127.8z"/>
	<path id="Path_10" d="M164.6,127.8c0,0-0.1,0-0.1-0.1c-0.8-0.1-1.4-0.7-1.5-1.6c-0.3-1.4-0.2-2.8,0-4.1c0.3-1.2,1.6-1.9,2.7-1.5
		c0.3,0.1,0.5,0.2,0.7,0.3c0.5,0.4,0.8,1.1,0.7,1.8h-0.8c0-0.1,0-0.3-0.1-0.4c0-0.6-0.5-1.1-1.1-1.1c0,0,0,0,0,0
		c-0.6-0.1-1.1,0.4-1.2,1c-0.2,1.3-0.3,2.6,0,3.9c0,0.6,0.6,1.1,1.2,1.1c0.1,0,0.2,0,0.3-0.1c0.5-0.1,0.8-0.5,0.8-1
		c0-0.2,0-0.3,0.1-0.5h0.8c0.2,0.9-0.3,1.7-1.1,2.1c-0.1,0-0.2,0.1-0.4,0.2L164.6,127.8z"/>
	<path id="Path_11" d="M138.6,114h-4c-0.1,0.7,0.1,1.4,0.4,1.9c0.3,0.4,0.9,0.5,1.4,0.2c0.2-0.1,0.3-0.3,0.3-0.4
		c0.1-0.2,0.1-0.5,0.2-0.7h1.7c0.1,0.8-0.3,1.5-1,2c-1.2,0.8-2.9,0.7-4-0.4c-0.3-0.4-0.5-0.8-0.6-1.2c-0.3-1.1-0.3-2.3,0-3.5
		c0.3-1.4,1.7-2.3,3.1-2.1c0,0,0.1,0,0.1,0c1.3,0.1,2.3,1.1,2.3,2.4c0.1,0.5,0.1,1,0.1,1.5C138.6,113.8,138.6,113.9,138.6,114z
		 M134.5,112.9h2.5c-0.1-0.5-0.1-0.9-0.2-1.3c-0.1-0.4-0.5-0.7-0.9-0.7c-0.5-0.1-0.9,0.2-1,0.6C134.7,112,134.6,112.5,134.5,112.9
		L134.5,112.9z"/>
	<path id="Path_12" d="M115.9,110h1.6v0.4c0,1.5,0,3.1,0,4.6c0,0.2,0,0.4,0.1,0.6c0.1,0.5,0.5,0.8,0.9,0.8c0.5,0,0.9-0.3,1-0.8
		c0.1-0.2,0.1-0.5,0.1-0.7c0-1.5,0-3,0-4.5V110h1.6v7.3h-1.6v-0.8c-0.5,0.8-1.4,1.1-2.3,0.9c-0.8-0.1-1.4-0.7-1.4-1.6
		C115.8,113.9,115.9,112,115.9,110z"/>
	<path id="Path_13" d="M149,110h1.6v0.4c0,1.6,0,3.2,0,4.8c0,0.6,0.2,1,0.6,1.1c0.5,0.2,1.1,0,1.3-0.6c0-0.1,0.1-0.2,0.1-0.3
		c0-0.3,0.1-0.6,0.1-0.9c0-1.5,0-3.1,0-4.6h1.6v7.3h-1.6v-0.8c-0.2,0.2-0.3,0.4-0.5,0.5c-0.8,0.6-1.8,0.6-2.6,0.1
		c-0.4-0.2-0.6-0.6-0.6-1.1C149,114,149,112,149,110z"/>
	<path id="Path_14" d="M160.5,112h-1.6c0-0.2-0.1-0.3-0.1-0.5c-0.1-0.5-0.6-0.7-1-0.6c0,0,0,0,0,0c-0.4,0-0.7,0.4-0.7,0.8
		c0,0,0,0,0,0c0,0.4,0.3,0.7,0.6,0.8c0.6,0.3,1.2,0.6,1.8,0.9c1,0.5,1.5,1.7,1,2.8c-0.3,0.6-0.8,1-1.4,1.1c-0.7,0.2-1.5,0.2-2.2,0
		c-1-0.3-1.7-1.3-1.5-2.3h1.6c0,0.2,0.1,0.5,0.1,0.7c0.1,0.4,0.5,0.7,0.9,0.6c0.4,0.1,0.8-0.2,1-0.5c0.2-0.4,0-0.9-0.3-1.1
		c-0.5-0.3-1.1-0.6-1.7-0.9c-0.2-0.1-0.5-0.2-0.7-0.3c-0.6-0.4-1-1.1-0.9-1.8c0.1-0.7,0.6-1.4,1.3-1.6c0.8-0.3,1.7-0.3,2.5-0.1
		C160,110.2,160.6,111.1,160.5,112z"/>
	<path id="Path_15" d="M139.5,115.1h1.7c0,0.1,0,0.2,0,0.3c0,0.6,0.4,1,1,1.1c0.2,0,0.3,0,0.5-0.1c0.4-0.1,0.7-0.6,0.5-1.1
		c0-0.1-0.1-0.2-0.1-0.3c-0.2-0.2-0.5-0.4-0.8-0.6c-0.5-0.3-1.1-0.5-1.6-0.8c-0.7-0.3-1.1-1-1.1-1.7c0-0.7,0.4-1.4,1.1-1.7
		c0.9-0.4,1.9-0.5,2.9-0.1c0.8,0.3,1.3,1.1,1.2,1.9h-1.6c0-0.2-0.1-0.4-0.1-0.6c-0.2-0.4-0.7-0.7-1.1-0.5c-0.4,0.1-0.7,0.4-0.6,0.8
		c0,0,0,0.1,0,0.1c0.1,0.3,0.3,0.6,0.6,0.7c0.6,0.4,1.2,0.6,1.8,0.9c1,0.5,1.4,1.8,0.9,2.8c-0.3,0.6-0.8,1-1.4,1.1
		c-0.7,0.2-1.5,0.2-2.3,0C140,117.1,139.3,116.1,139.5,115.1z"/>
	<path id="Path_16" d="M124.1,107.9v2.1h1.3v1.1c-0.3,0-0.7,0-1,0c-0.2,0-0.3,0.1-0.3,0.3c0,1.4,0,2.8,0,4.1c0,0.6,0.3,0.9,0.9,0.8
		c0.1,0,0.2,0,0.4,0v1.1c-0.6,0-1.2,0-1.8,0c-0.7-0.1-1.2-0.7-1.1-1.4c0-2.3,0-4.6,0-6.9c0-0.2,0.1-0.4,0.3-0.5
		C123.2,108.3,123.6,108.1,124.1,107.9z"/>
	<path id="Path_17" d="M172.7,127.6h-0.9v-0.4c0-1.5,0-2.9,0-4.4c0-0.2,0-0.4-0.1-0.6c0-0.6-0.5-1-1-1.1c-0.6-0.1-1.1,0.2-1.4,0.7
		c-0.2,0.5-0.3,1-0.3,1.5c0,1.3,0,2.6,0,3.8v0.5h-0.8v-9.5h0.8v3.2c0.4-0.3,0.8-0.5,1.2-0.7c0.9-0.4,1.9,0.1,2.3,1
		c0.1,0.2,0.1,0.5,0.1,0.8c0,1.4,0,2.7,0,4.1C172.7,126.8,172.7,127.2,172.7,127.6z"/>
	<path id="Path_18" d="M188.7,127.6h-0.9v-0.5c0-1.4,0-2.8,0-4.2c0-0.2,0-0.4,0-0.6c0-0.6-0.4-1-1-1.1c-0.6-0.1-1.2,0.2-1.4,0.7
		c-0.2,0.4-0.3,0.9-0.3,1.4c0,1.3,0,2.6,0,3.9v0.4h-0.8v-9.5h0.8v3.3l0.1,0.1c0-0.1,0.1-0.2,0.1-0.3c0.6-0.7,1.5-0.9,2.3-0.6
		c0.8,0.3,1.2,1.1,1.1,1.9c0,1.3,0,2.6,0,3.9C188.6,126.8,188.7,127.2,188.7,127.6z"/>
	<path id="Path_19" d="M155.7,127.6h-0.8c0-0.2,0-0.3,0-0.4c0-1.6,0-3.1,0-4.7c0.1-0.7-0.4-1.3-1.1-1.3c0,0,0,0,0,0
		c-0.7-0.1-1.3,0.3-1.5,1c-0.1,0.3-0.2,0.7-0.2,1.1c0,1.5,0,2.9,0,4.4h-0.8v-9.5h0.8v3.3c0.1-0.1,0.1-0.1,0.2-0.2
		c0.5-0.7,1.4-0.9,2.2-0.7c0.7,0.2,1.2,0.7,1.2,1.4c0,0.3,0.1,0.6,0.1,0.9C155.7,124.4,155.7,126,155.7,127.6z"/>
	<path id="Path_20" d="M130.7,120.6c-0.8,0.9-1.5,1.9-2.2,2.8c-0.2,0.2-0.2,0.4,0,0.6c0,0,0,0,0,0c0.8,1.1,1.5,2.2,2.2,3.3
		c0.1,0.1,0.1,0.2,0.2,0.3c-0.4,0-0.7,0-1,0c-0.1,0-0.2-0.1-0.3-0.2c-0.8-1.2-1.5-2.3-2.3-3.6v3.8h-0.8v-9.5h0.8v5.5l0.1,0l1.6-2.1
		c0.1-0.1,0.2-0.2,0.2-0.3C129.5,120.6,130.2,120.4,130.7,120.6z"/>
	<path id="Path_21" d="M138.2,127.6h-0.8v-7h0.8c0,0.2,0,0.5,0,0.8c0.1-0.1,0.2-0.3,0.3-0.4c0.6-0.6,1.5-0.8,2.2-0.4
		c0.7,0.3,1.1,1,1,1.7c0,1.4,0,2.9,0,4.3c0,0.3,0,0.6,0.1,1H141v-0.4c0-1.5,0-2.9,0-4.4c0-0.2,0-0.4-0.1-0.6c-0.1-0.5-0.4-0.9-1-1
		c-0.5-0.1-1.1,0.1-1.4,0.5c-0.3,0.4-0.4,0.9-0.4,1.5c0,1.3,0,2.7,0,4L138.2,127.6z"/>
	<path id="Path_22" d="M146,110h1.7v7.3H146V110z"/>
	<path id="Path_23" d="M148.9,119.1v1.5h1.1v0.7h-1.1c0,0.2,0,0.3,0,0.4c0,1.4,0,2.8,0,4.2c0,0.9,0.2,1.1,1.1,1c0.1,0,0.2,0,0.3,0
		v0.7c-0.4,0-0.9,0-1.3,0c-0.6-0.1-1-0.6-0.9-1.1c0,0,0,0,0,0c0-1.5,0-3,0-4.6c0-0.6,0-1.3,0-1.9c0-0.4,0.1-0.6,0.4-0.7
		C148.6,119.2,148.8,119.1,148.9,119.1z"/>
	<path id="Path_24" d="M195.7,118h0.8v9.5h-0.8V118z"/>
</g>
</svg>
